<?xml version="1.0" standalone="no"?>
<!DOCTYPE svg PUBLIC "-//W3C//DTD SVG 20010904//EN"
 "http://www.w3.org/TR/2001/REC-SVG-20010904/DTD/svg10.dtd">
<svg version="1.0" xmlns="http://www.w3.org/2000/svg"
 width="102.000000pt" height="102.000000pt" viewBox="0 0 102.000000 102.000000"
 preserveAspectRatio="xMidYMid meet">
<metadata>
Created by potrace 1.14, written by Peter Selinger 2001-2017
</metadata>
<g transform="translate(0.000000,102.000000) scale(0.100000,-0.100000)"
fill="#000000" stroke="none">
<path d="M507 977 c4 -6 0 -8 -11 -4 -11 5 -15 3 -10 -5 5 -7 2 -9 -9 -5 -10
4 -23 -3 -37 -21 -11 -15 -19 -20 -17 -12 2 8 2 12 0 7 -3 -4 -10 -4 -15 -1
-7 5 -8 2 -4 -5 8 -13 -23 -43 -36 -35 -5 3 -18 -7 -31 -22 -18 -21 -26 -24
-32 -14 -6 9 -4 11 5 5 9 -5 11 -4 6 3 -5 9 -14 7 -31 -5 -12 -10 -21 -21 -19
-24 2 -4 -3 -10 -12 -13 -10 -4 -13 -2 -8 6 4 7 3 8 -4 4 -7 -4 -12 -14 -12
-22 0 -8 -4 -14 -10 -14 -5 0 -7 8 -4 18 5 16 5 16 -6 -1 -6 -9 -14 -15 -18
-13 -4 2 -19 -5 -32 -16 l-25 -20 28 16 c15 9 27 13 27 8 0 -13 -50 -33 -62
-25 -7 4 -9 1 -5 -9 3 -9 -1 -27 -8 -42 -8 -15 -11 -25 -7 -22 4 2 7 -29 7
-70 0 -44 -4 -74 -10 -74 -5 0 -3 -5 5 -10 13 -8 13 -13 2 -31 -8 -11 -9 -19
-4 -15 13 8 11 -56 -2 -73 -7 -10 -7 -13 0 -9 14 9 13 -94 -1 -104 -6 -5 -5
-8 3 -8 8 0 10 -5 5 -12 -9 -15 -14 -42 -6 -35 3 3 14 -3 26 -13 15 -15 24
-17 34 -9 10 9 15 6 22 -13 5 -14 18 -24 31 -25 12 -1 27 -8 33 -15 7 -8 20
-20 30 -27 15 -12 17 -12 14 0 -2 8 -2 11 0 6 3 -4 9 -5 14 -2 5 4 6 0 3 -8
-3 -8 -1 -18 5 -22 6 -3 11 -2 11 3 0 5 6 9 14 9 8 0 12 -6 9 -13 -2 -6 1 -15
8 -20 7 -4 10 -3 5 4 -3 6 1 9 11 8 9 -2 19 -9 21 -17 3 -11 1 -11 -7 1 -6 8
-11 10 -11 4 0 -17 12 -25 24 -15 7 6 20 2 36 -11 l25 -20 -29 17 c-16 9 -25
12 -22 6 10 -16 69 -46 85 -42 7 1 11 -2 8 -6 -3 -5 6 -8 21 -7 40 2 42 3 42
15 0 8 -5 7 -15 -1 -9 -7 -18 -10 -21 -8 -3 3 16 17 41 31 25 14 43 22 40 16
-4 -5 -1 -9 4 -9 6 0 11 6 11 14 0 16 27 29 42 19 6 -3 8 -1 4 5 -3 6 -2 13 4
17 5 3 10 1 10 -5 0 -6 5 -8 11 -5 6 4 8 10 5 13 -10 9 74 54 89 48 10 -3 12
0 8 12 -3 9 -3 14 1 10 5 -4 13 -2 20 3 6 6 39 28 74 49 34 22 62 45 62 52 0
9 -3 8 -10 -2 -8 -13 -10 -13 -10 2 0 9 5 20 10 23 6 3 10 12 10 18 0 7 -4 6
-10 -3 -9 -13 -10 -13 -10 1 0 8 5 20 11 26 8 8 8 13 0 17 -6 4 -11 12 -11 17
0 6 5 7 11 3 8 -5 8 -1 0 14 -14 27 -14 35 2 26 8 -5 8 -2 -2 9 -11 14 -11 17
0 17 10 0 10 3 1 12 -14 14 -16 32 -4 24 10 -6 9 30 -1 40 -12 12 -8 26 6 18
8 -5 8 -2 -2 9 -11 14 -11 17 0 17 10 0 10 3 1 12 -14 14 -16 32 -4 24 10 -6
9 30 -1 40 -9 10 -9 26 1 21 12 -8 6 47 -8 70 -11 17 -17 19 -28 11 -10 -9
-14 -7 -18 8 -4 17 -58 57 -68 51 -2 -1 -14 7 -25 17 -18 17 -21 17 -15 3 3
-9 3 -17 0 -17 -4 0 -11 12 -16 26 -8 21 -13 24 -25 14 -14 -12 -39 -5 -31 9
3 4 -8 17 -23 29 -22 16 -31 18 -41 9 -10 -9 -11 -9 -5 1 5 9 2 12 -10 10 -10
-2 -20 4 -22 12 -4 13 -3 13 7 0 10 -13 11 -13 7 0 -2 8 -8 15 -13 15 -5 1
-20 7 -33 14 -31 17 -83 23 -74 8z m93 -33 c0 -2 -9 0 -20 6 -11 6 -20 13 -20
16 0 2 9 0 20 -6 11 -6 20 -13 20 -16z m-137 1 c-3 -9 -8 -14 -10 -11 -3 3 -2
9 2 15 9 16 15 13 8 -4z m69 -44 c-5 -13 -3 -14 10 -3 13 10 18 9 29 -5 13
-16 12 -17 -3 -4 -10 7 -18 10 -18 5 0 -5 19 -19 43 -32 39 -22 40 -22 17 -2
-22 19 -22 20 -3 11 12 -6 25 -16 28 -21 4 -6 10 -8 15 -5 4 3 14 -3 21 -12
12 -14 12 -16 -1 -8 -12 6 -13 6 -2 -6 11 -12 14 -12 21 0 7 10 9 7 8 -12 -1
-14 -6 -22 -12 -19 -5 3 -4 -2 4 -11 11 -14 11 -17 0 -17 -11 0 -11 -3 1 -11
11 -8 12 -12 2 -16 -6 -2 -9 -10 -5 -16 12 -20 12 -37 0 -37 -8 0 -8 -3 -2 -8
6 -4 11 -15 13 -26 3 -13 -1 -17 -12 -13 -8 3 -18 1 -22 -5 -5 -7 -2 -8 6 -3
9 6 11 4 5 -4 -5 -9 -10 -10 -18 -2 -7 7 -18 4 -37 -9 -15 -11 -30 -16 -34
-13 -4 4 -4 -1 0 -12 6 -14 4 -17 -9 -12 -9 3 -19 1 -23 -5 -5 -7 -2 -8 6 -3
8 5 11 4 6 -3 -4 -6 -14 -8 -23 -5 -9 4 -14 2 -10 -3 3 -5 -3 -10 -13 -10 -10
0 -18 3 -18 6 2 24 -4 32 -23 27 -15 -4 -19 -2 -15 9 4 11 -1 13 -19 10 -14
-3 -29 2 -37 12 -11 13 -11 14 1 7 10 -6 12 -4 7 4 -5 7 -13 10 -20 8 -6 -3
-20 1 -31 9 -10 8 -14 14 -9 14 6 0 16 -6 24 -12 8 -7 6 -3 -4 10 -11 12 -15
22 -10 22 5 0 2 5 -6 10 -10 6 -11 10 -3 10 15 0 13 21 -2 32 -6 5 -6 8 1 8
14 0 14 30 0 30 -6 0 -4 5 4 10 13 9 13 10 0 10 -9 0 -11 3 -5 8 6 4 10 15 10
25 0 9 4 17 8 16 5 0 15 8 23 18 7 10 14 14 14 8 0 -5 5 -3 10 5 7 11 10 11
10 2 0 -7 5 -10 10 -7 6 4 8 10 5 15 -3 4 2 11 11 14 10 4 13 2 8 -7 -3 -6 5
0 19 14 28 29 59 35 49 10z m159 -8 c13 -17 13 -17 -6 -3 -11 8 -22 16 -24 17
-2 2 0 3 6 3 6 0 17 -8 24 -17z m189 -110 c0 -7 -39 17 -45 27 -4 6 -11 7 -17
4 -7 -4 -8 -2 -4 4 5 8 16 5 37 -10 16 -12 29 -23 29 -25z m-102 -22 c-2 -18
4 -21 23 -10 16 8 20 8 14 -1 -9 -15 26 -41 40 -30 6 5 17 4 25 -2 12 -8 12
-9 -2 -4 -10 3 -18 1 -18 -3 0 -5 6 -11 13 -13 15 -6 17 -58 2 -58 -6 0 -7 -3
0 -8 15 -11 17 -32 2 -32 -8 0 -7 -4 3 -11 12 -9 13 -12 1 -16 -11 -5 -11 -7
0 -15 12 -8 12 -10 0 -15 -11 -5 -11 -7 0 -15 12 -8 12 -10 0 -15 -11 -5 -11
-7 0 -14 12 -8 11 -11 -1 -19 -8 -5 -10 -10 -5 -10 6 0 11 -9 12 -20 1 -12 -3
-18 -9 -14 -6 4 -6 -1 1 -14 6 -11 11 -23 11 -27 0 -3 -5 -3 -11 1 -8 4 -8 1
-1 -12 15 -28 15 -36 0 -45 -10 -7 -10 -9 0 -9 6 0 12 -9 12 -20 0 -16 -5 -19
-24 -16 -14 3 -30 -2 -37 -10 -6 -8 -17 -14 -24 -14 -7 0 -18 -7 -25 -15 -16
-19 -32 -15 -36 8 -1 9 2 15 7 11 13 -8 11 10 -3 24 -8 8 -9 12 -1 12 12 0 12
18 0 37 -4 6 -3 14 1 17 8 5 9 27 3 58 -1 8 -40 22 -60 23 -8 0 -16 7 -18 15
-4 13 -3 13 6 0 6 -8 11 -10 11 -4 0 19 -12 24 -34 12 -19 -10 -20 -10 -7 5 7
10 12 17 10 18 -31 6 -38 6 -33 -2 3 -5 -7 -4 -21 3 l-26 12 23 17 c12 10 27
15 32 12 5 -3 14 0 20 8 12 17 88 65 97 62 3 -1 4 8 3 20 -1 12 -3 22 -4 22
-1 0 -3 8 -5 18 -2 9 1 15 6 11 12 -7 11 3 -2 28 -8 15 -8 19 0 14 13 -9 14 4
1 24 -6 9 -5 17 3 22 9 6 9 8 0 8 -7 0 -13 7 -13 17 0 15 2 14 20 -2 10 -9 19
-20 18 -24z m-474 18 c-2 -4 1 -11 7 -15 8 -4 7 -9 -2 -15 -12 -8 -12 -11 1
-18 12 -9 12 -11 -3 -17 -9 -3 -17 -10 -17 -16 0 -5 4 -7 9 -3 6 3 10 -12 9
-35 0 -22 6 -48 13 -58 13 -15 12 -16 -4 -3 -35 28 -27 2 9 -27 29 -24 41 -29
55 -21 14 7 17 6 13 -5 -3 -8 0 -17 7 -22 7 -4 10 -3 6 3 -3 5 0 10 7 10 8 0
12 -6 9 -13 -2 -6 2 -12 9 -11 7 0 22 -1 33 -2 17 -1 18 -3 5 -11 -8 -5 -25
-10 -38 -10 -13 0 -34 -12 -48 -27 -14 -16 -35 -28 -47 -28 -14 0 -21 -8 -24
-25 -5 -36 -3 -172 3 -181 2 -4 -4 -7 -15 -6 -10 0 -17 6 -14 13 6 16 -14 27
-23 13 -5 -8 -17 -1 -36 22 -16 19 -27 29 -24 23 3 -6 -1 -11 -8 -11 -8 0 -12
7 -8 15 3 10 1 13 -6 8 -6 -3 -14 -1 -18 5 -4 8 -3 9 4 5 7 -4 12 -3 12 3 0 5
-5 13 -10 16 -7 4 -7 12 0 25 13 25 13 33 -2 24 -10 -6 -10 -4 0 7 6 7 12 20
12 29 0 13 -1 13 -10 0 -6 -9 -10 -10 -10 -3 0 6 5 15 10 18 6 3 10 14 10 23
0 15 -2 15 -10 2 -6 -9 -10 -10 -10 -3 0 6 5 15 10 18 6 3 10 14 10 23 0 15
-2 15 -10 2 -6 -9 -10 -10 -10 -3 0 6 5 15 10 18 15 9 12 27 -2 19 -10 -6 -10
-4 0 7 13 14 17 33 4 25 -4 -2 -8 4 -8 14 0 10 4 16 8 14 10 -6 11 10 1 20
-10 10 -11 46 -1 40 13 -8 10 10 -4 25 -11 11 -10 12 2 6 13 -8 13 -6 2 7 -11
14 -10 19 9 31 12 9 29 13 38 10 9 -4 13 -3 9 2 -4 4 6 18 24 30 31 21 62 29
52 14z m540 -45 c3 -8 2 -12 -4 -9 -6 3 -10 10 -10 16 0 14 7 11 14 -7z m101
6 c3 -5 1 -10 -4 -10 -6 0 -11 5 -11 10 0 6 2 10 4 10 3 0 8 -4 11 -10z m-300
-130 c-3 -5 -16 -15 -28 -21 -19 -9 -19 -8 3 10 28 23 34 26 25 11z m-290 -40
c4 -6 11 -7 17 -4 7 4 8 2 4 -5 -6 -9 -12 -9 -24 1 -10 7 -19 14 -21 15 -2 2
1 3 7 3 6 0 14 -5 17 -10z m197 -119 c-2 -9 5 -10 20 -5 21 6 22 5 8 -12 -8
-10 -10 -16 -6 -12 5 4 15 3 22 -3 8 -6 20 -9 28 -6 8 3 29 -8 47 -24 28 -25
31 -32 19 -39 -8 -5 -10 -10 -4 -10 6 0 11 -7 11 -15 0 -8 -4 -15 -9 -15 -4 0
-8 -5 -8 -11 0 -5 4 -8 10 -4 10 6 6 -47 -4 -64 -4 -5 -2 -12 4 -16 19 -12 11
-34 -11 -30 -14 3 -19 0 -16 -9 3 -7 -1 -13 -9 -13 -7 0 -11 5 -7 11 3 6 -5 0
-18 -14 -13 -14 -19 -19 -14 -11 8 12 7 12 -12 2 -13 -6 -22 -17 -20 -24 1 -7
-5 -10 -13 -8 -8 2 -36 4 -62 5 -26 1 -51 6 -55 11 -5 4 -2 5 5 1 6 -4 12 -2
12 5 0 6 -8 9 -19 6 -13 -3 -26 5 -40 24 -12 16 -27 26 -35 23 -11 -4 -13 4
-11 35 2 28 0 39 -7 35 -7 -5 -8 -2 -3 6 14 22 15 81 1 73 -6 -4 -5 1 3 10 11
14 11 17 0 17 -10 1 -8 5 5 15 15 11 23 12 33 3 11 -9 12 -7 7 8 -4 10 -4 16
0 12 5 -4 13 -2 20 3 55 48 136 73 128 40z m312 -173 c-3 -5 -9 -6 -14 -3 -4
3 -13 -2 -20 -10 -7 -8 -18 -15 -25 -15 -8 0 -16 -6 -18 -12 -4 -10 -6 -10 -6
0 -1 7 10 17 23 22 13 5 27 13 30 18 3 5 12 9 20 9 8 0 13 -4 10 -9z m-713
-35 c13 -16 12 -17 -3 -4 -10 7 -18 15 -18 17 0 8 8 3 21 -13z m250 -70 c12
-16 12 -17 -2 -6 -9 7 -20 9 -24 5 -5 -4 -5 -1 -1 6 9 16 11 15 27 -5z m104
-63 c3 -6 -1 -7 -9 -4 -18 7 -21 14 -7 14 6 0 13 -4 16 -10z m51 -2 c4 -7 3
-8 -4 -4 -7 4 -12 2 -12 -4 0 -6 -5 -8 -11 -4 -8 4 -7 9 2 15 18 11 17 11 25
-3z"/>
<path d="M270 760 c0 -5 5 -10 10 -10 6 0 10 5 10 10 0 6 -4 10 -10 10 -5 0
-10 -4 -10 -10z"/>
<path d="M346 448 c3 -5 10 -6 15 -3 13 9 11 12 -6 12 -8 0 -12 -4 -9 -9z"/>
<path d="M526 448 c3 -5 10 -6 15 -3 13 9 11 12 -6 12 -8 0 -12 -4 -9 -9z"/>
<path d="M630 402 c0 -4 9 -13 20 -20 11 -7 20 -9 20 -4 0 4 -9 13 -20 20 -11
7 -20 9 -20 4z"/>
<path d="M370 909 c0 -5 5 -7 10 -4 6 3 10 8 10 11 0 2 -4 4 -10 4 -5 0 -10
-5 -10 -11z"/>
<path d="M725 880 c-3 -5 -1 -10 4 -10 6 0 11 5 11 10 0 6 -2 10 -4 10 -3 0
-8 -4 -11 -10z"/>
<path d="M860 215 c-11 -13 -10 -14 4 -9 9 3 16 10 16 15 0 13 -6 11 -20 -6z"/>
</g>
</svg>
